<svg xmlns="http://www.w3.org/2000/svg" xmlns:xlink="http://www.w3.org/1999/xlink" width="500" zoomAndPan="magnify" viewBox="0 0 375 374.999991" height="500" preserveAspectRatio="xMidYMid meet" version="1.0"><defs><clipPath id="65bcf44279"><path d="M 5.785156 3 L 276 3 L 276 372 L 5.785156 372 Z M 5.785156 3 " clip-rule="nonzero"/></clipPath><clipPath id="be8edf3c98"><path d="M 240 30 L 369.445312 30 L 369.445312 372 L 240 372 Z M 240 30 " clip-rule="nonzero"/></clipPath></defs><path fill="#fcd770" d="M 117.164062 259.574219 C 148.378906 259.574219 173.898438 283.988281 175.71875 314.742188 L 152.367188 312.394531 L 136.410156 276.476562 C 134.121094 271.3125 130.425781 267.085938 125.90625 264.152344 C 123.089844 262.332031 119.921875 260.984375 112.53125 259.632812 L 112.53125 259.457031 C 114.054688 259.515625 115.582031 259.574219 117.164062 259.574219 Z M 117.164062 259.574219 " fill-opacity="1" fill-rule="nonzero"/><path fill="#fcd770" d="M 136.410156 276.476562 L 152.367188 312.394531 L 107.25 332.46875 C 97.21875 323.898438 89.179688 312.75 84.015625 299.894531 C 82.667969 296.492188 81.964844 292.910156 81.964844 289.332031 L 81.964844 288.039062 C 81.964844 272.308594 94.695312 259.574219 110.417969 259.574219 C 111.121094 259.574219 111.828125 259.574219 112.53125 259.632812 C 119.921875 260.984375 123.089844 262.332031 125.90625 264.152344 C 130.425781 267.085938 134.121094 271.3125 136.410156 276.476562 Z M 136.410156 276.476562 " fill-opacity="1" fill-rule="nonzero"/><path fill="#b27946" d="M 208.160156 78.394531 L 205.167969 76.164062 C 208.925781 68.945312 211.035156 60.785156 211.035156 52.277344 L 211.035156 48.285156 L 175.835938 54.15625 L 169.96875 24.808594 L 134.765625 42.417969 L 128.898438 13.070312 L 87.832031 36.546875 L 87.832031 18.941406 C 76.742188 22.636719 66.828125 28.800781 58.847656 36.898438 C 50.75 44.882812 44.589844 54.800781 40.894531 65.894531 L 35.789062 67.945312 C 28.457031 70.882812 22.414062 75.871094 18.191406 82.148438 C 13.964844 88.371094 11.558594 95.824219 11.558594 103.75 C 11.558594 109.734375 12.96875 115.664062 15.609375 121.003906 L 21.300781 132.332031 C 23.644531 131.097656 26.34375 130.453125 29.160156 130.453125 L 35.027344 130.453125 C 35.027344 111.027344 50.808594 95.238281 70.230469 95.238281 L 164.101562 95.238281 C 170.027344 95.238281 175.660156 96.707031 180.527344 99.289062 C 191.675781 105.214844 199.300781 116.953125 199.300781 130.453125 L 205.167969 130.453125 C 208.21875 130.453125 211.09375 131.214844 213.558594 132.566406 L 216.609375 127.929688 C 220.65625 121.941406 222.769531 114.839844 222.769531 107.621094 C 222.769531 96.117188 217.371094 85.320312 208.160156 78.394531 Z M 208.160156 78.394531 " fill-opacity="1" fill-rule="nonzero"/><path fill="#e6e9ed" d="M 363.578125 71.761719 L 363.578125 171.535156 C 363.578125 174.765625 360.9375 177.40625 357.710938 177.40625 L 339.992188 177.40625 C 340.050781 176.878906 340.109375 176.351562 340.109375 175.878906 C 340.109375 170.246094 335.53125 165.667969 329.898438 165.667969 L 324.210938 165.667969 C 319.691406 165.667969 315.761719 168.601562 314.410156 172.886719 L 313.0625 177.40625 L 252.105469 177.40625 C 248.878906 177.40625 246.238281 174.765625 246.238281 171.535156 L 246.238281 71.761719 Z M 363.578125 71.761719 " fill-opacity="1" fill-rule="nonzero"/><path fill="#b4dd7f" d="M 252.105469 36.546875 L 357.710938 36.546875 C 360.9375 36.546875 363.578125 39.1875 363.578125 42.417969 L 363.578125 71.761719 L 246.238281 71.761719 L 246.238281 42.417969 C 246.238281 39.1875 248.878906 36.546875 252.105469 36.546875 Z M 252.105469 36.546875 " fill-opacity="1" fill-rule="nonzero"/><path fill="#ccd1d9" d="M 313.355469 265.441406 L 301.269531 305.175781 C 299.921875 309.460938 295.988281 312.394531 291.472656 312.394531 L 285.78125 312.394531 C 280.148438 312.394531 275.574219 307.816406 275.574219 302.183594 C 275.574219 301.1875 275.75 300.1875 276.042969 299.191406 L 313.0625 177.40625 L 314.410156 172.886719 C 315.761719 168.601562 319.691406 165.667969 324.210938 165.667969 L 329.898438 165.667969 C 335.53125 165.667969 340.109375 170.246094 340.109375 175.878906 C 340.109375 176.351562 340.050781 176.878906 339.992188 177.40625 C 339.875 177.875 339.757812 178.34375 339.640625 178.875 L 328.84375 214.324219 L 328.84375 214.382812 Z M 313.355469 265.441406 " fill-opacity="1" fill-rule="nonzero"/><path fill="#aab2bd" d="M 363.578125 341.742188 L 363.578125 359.347656 C 363.578125 362.578125 360.9375 365.21875 357.710938 365.21875 L 299.039062 365.21875 C 295.8125 365.21875 293.171875 362.578125 293.171875 359.347656 L 293.171875 347.609375 C 293.171875 344.382812 295.8125 341.742188 299.039062 341.742188 Z M 363.578125 341.742188 " fill-opacity="1" fill-rule="nonzero"/><path fill="#aab2bd" d="M 269.707031 347.609375 L 269.707031 359.347656 C 269.707031 362.578125 267.066406 365.21875 263.839844 365.21875 L 181.703125 365.21875 C 178.476562 365.21875 175.835938 362.578125 175.835938 359.347656 L 175.835938 347.609375 C 175.835938 344.382812 178.476562 341.742188 181.703125 341.742188 L 263.839844 341.742188 C 267.066406 341.742188 269.707031 344.382812 269.707031 347.609375 Z M 269.707031 347.609375 " fill-opacity="1" fill-rule="nonzero"/><path fill="#f0d0b4" d="M 211.035156 341.742188 L 181.703125 341.742188 C 178.476562 341.742188 175.835938 344.382812 175.835938 347.609375 L 175.835938 353.480469 L 163.160156 353.480469 C 142.160156 353.480469 122.445312 345.792969 107.25 332.46875 L 152.367188 312.394531 L 175.71875 314.742188 L 187.6875 315.917969 C 200.945312 317.265625 211.035156 328.417969 211.035156 341.742188 Z M 211.035156 341.742188 " fill-opacity="1" fill-rule="nonzero"/><path fill="#f0d0b4" d="M 213.558594 132.566406 C 219.074219 135.558594 222.769531 141.371094 222.769531 148.058594 C 222.769531 152.933594 220.773438 157.332031 217.605469 160.503906 C 214.4375 163.671875 210.039062 165.667969 205.167969 165.667969 L 199.300781 165.667969 L 199.300781 130.453125 L 205.167969 130.453125 C 208.21875 130.453125 211.09375 131.214844 213.558594 132.566406 Z M 213.558594 132.566406 " fill-opacity="1" fill-rule="nonzero"/><path fill="#f0d0b4" d="M 128.898438 142.191406 C 128.898438 135.734375 134.179688 130.453125 140.632812 130.453125 L 187.570312 130.453125 C 194.023438 130.453125 199.300781 135.734375 199.300781 142.191406 L 199.300781 130.453125 C 199.300781 116.953125 191.675781 105.214844 180.527344 99.289062 C 175.660156 96.707031 170.027344 95.238281 164.101562 95.238281 L 70.230469 95.238281 C 50.808594 95.238281 35.027344 111.027344 35.027344 130.453125 L 35.027344 142.191406 C 35.027344 135.734375 40.308594 130.453125 46.761719 130.453125 L 93.699219 130.453125 C 100.152344 130.453125 105.429688 135.734375 105.429688 142.191406 L 105.429688 177.40625 C 105.429688 183.863281 100.152344 189.144531 93.699219 189.144531 L 46.761719 189.144531 C 40.71875 189.144531 35.671875 184.507812 35.085938 178.578125 C 35.671875 221.835938 69.703125 257.050781 112.53125 259.457031 C 114.054688 259.515625 115.582031 259.574219 117.164062 259.574219 C 139.8125 259.574219 160.347656 250.359375 175.246094 235.511719 C 189.855469 220.894531 199.007812 200.824219 199.242188 178.578125 C 198.65625 184.507812 193.613281 189.144531 187.570312 189.144531 L 140.632812 189.144531 C 134.179688 189.144531 128.898438 183.863281 128.898438 177.40625 Z M 128.898438 142.191406 " fill-opacity="1" fill-rule="nonzero"/><path fill="#f0d0b4" d="M 35.027344 130.453125 L 35.027344 165.667969 L 29.160156 165.667969 C 24.292969 165.667969 19.890625 163.671875 16.722656 160.503906 C 13.554688 157.332031 11.558594 152.933594 11.558594 148.058594 C 11.558594 141.136719 15.492188 135.207031 21.300781 132.332031 C 23.644531 131.097656 26.34375 130.453125 29.160156 130.453125 Z M 35.027344 130.453125 " fill-opacity="1" fill-rule="nonzero"/><path fill="#69d6f4" d="M 199.300781 165.667969 L 199.300781 177.40625 C 199.300781 177.816406 199.300781 178.226562 199.242188 178.578125 C 198.65625 184.507812 193.613281 189.144531 187.570312 189.144531 L 140.632812 189.144531 C 134.179688 189.144531 128.898438 183.863281 128.898438 177.40625 L 128.898438 142.191406 C 128.898438 135.734375 134.179688 130.453125 140.632812 130.453125 L 187.570312 130.453125 C 194.023438 130.453125 199.300781 135.734375 199.300781 142.191406 Z M 199.300781 165.667969 " fill-opacity="1" fill-rule="nonzero"/><path fill="#69d6f4" d="M 105.429688 153.929688 L 105.429688 177.40625 C 105.429688 183.863281 100.152344 189.144531 93.699219 189.144531 L 46.761719 189.144531 C 40.71875 189.144531 35.671875 184.507812 35.085938 178.578125 C 35.027344 178.226562 35.027344 177.816406 35.027344 177.40625 L 35.027344 142.191406 C 35.027344 135.734375 40.308594 130.453125 46.761719 130.453125 L 93.699219 130.453125 C 100.152344 130.453125 105.429688 135.734375 105.429688 142.191406 Z M 105.429688 153.929688 " fill-opacity="1" fill-rule="nonzero"/><path fill="#000000" d="M 151.75 215.246094 L 141.253906 209.992188 C 138.636719 215.234375 133.371094 218.484375 127.515625 218.484375 L 99.5625 218.484375 L 99.5625 230.222656 L 127.515625 230.222656 C 137.835938 230.226562 147.121094 224.484375 151.75 215.246094 Z M 151.75 215.246094 " fill-opacity="1" fill-rule="nonzero"/><path fill="#000000" d="M 58.496094 167.054688 C 60.730469 162.574219 65.226562 159.796875 70.230469 159.796875 C 75.234375 159.796875 79.726562 162.582031 81.964844 167.054688 L 82.578125 168.292969 L 93.074219 163.039062 L 92.460938 161.800781 C 88.222656 153.324219 79.703125 148.054688 70.230469 148.054688 C 60.753906 148.054688 52.234375 153.320312 48 161.800781 L 47.382812 163.039062 L 57.878906 168.292969 Z M 58.496094 167.054688 " fill-opacity="1" fill-rule="nonzero"/><path fill="#000000" d="M 164.101562 148.058594 C 154.625 148.058594 146.105469 153.324219 141.871094 161.804688 L 141.253906 163.042969 L 151.75 168.296875 L 152.367188 167.054688 C 154.601562 162.574219 159.097656 159.796875 164.101562 159.796875 C 169.105469 159.796875 173.597656 162.582031 175.835938 167.054688 L 176.449219 168.292969 L 186.945312 163.039062 L 186.332031 161.800781 C 182.09375 153.324219 173.574219 148.058594 164.101562 148.058594 Z M 164.101562 148.058594 " fill-opacity="1" fill-rule="nonzero"/><g clip-path="url(#65bcf44279)"><path fill="#000000" d="M 263.839844 335.871094 L 216.359375 335.871094 C 213.824219 322.191406 202.597656 311.527344 188.273438 310.082031 L 181.042969 309.363281 C 178.070312 287.828125 164.527344 269.816406 145.929688 260.511719 C 180.351562 248.558594 205.167969 215.867188 205.167969 177.40625 L 205.167969 171.535156 C 218.113281 171.535156 228.636719 161.007812 228.636719 148.058594 C 228.636719 141.457031 225.878906 135.507812 221.480469 131.238281 L 221.515625 131.179688 C 226.171875 124.179688 228.636719 116.042969 228.636719 107.644531 C 228.636719 94.667969 222.554688 82.292969 212.367188 74.296875 C 215.242188 67.425781 216.902344 59.976562 216.902344 52.246094 L 216.902344 41.355469 L 180.476562 47.429688 L 174.214844 16.121094 L 139.015625 33.730469 L 133.054688 3.933594 L 93.699219 26.429688 L 93.699219 10.792969 L 85.976562 13.371094 C 63.058594 21.003906 44.65625 38.859375 36.25 61.433594 L 33.621094 62.484375 C 16.652344 69.265625 5.695312 85.464844 5.695312 103.742188 C 5.695312 110.605469 7.3125 117.46875 10.382812 123.617188 L 13.800781 130.453125 C 8.875 134.753906 5.695312 141.011719 5.695312 148.058594 C 5.695312 161.007812 16.21875 171.535156 29.160156 171.535156 L 29.160156 177.40625 C 29.160156 216.265625 54.484375 249.261719 89.460938 260.90625 C 81.347656 267.1875 76.097656 276.992188 76.097656 288.027344 L 76.097656 289.308594 C 76.097656 293.679688 76.925781 297.96875 78.550781 302.054688 C 92.464844 336.859375 125.667969 359.347656 163.144531 359.347656 L 169.96875 359.347656 C 169.96875 365.824219 175.230469 371.085938 181.703125 371.085938 L 263.839844 371.085938 C 270.308594 371.085938 275.574219 365.824219 275.574219 359.347656 L 275.574219 347.609375 C 275.574219 341.136719 270.308594 335.871094 263.839844 335.871094 Z M 168.945312 308.152344 L 156.34375 306.890625 L 141.777344 274.089844 C 141.242188 272.890625 140.597656 271.777344 139.941406 270.660156 C 154.714844 277.757812 165.714844 291.515625 168.945312 308.152344 Z M 187.570312 183.273438 L 140.632812 183.273438 C 137.394531 183.273438 134.765625 180.644531 134.765625 177.40625 L 134.765625 142.191406 C 134.765625 138.953125 137.394531 136.320312 140.632812 136.320312 L 187.570312 136.320312 C 190.808594 136.320312 193.433594 138.953125 193.433594 142.191406 L 193.433594 177.40625 C 193.433594 180.640625 190.808594 183.273438 187.570312 183.273438 Z M 123.03125 142.191406 L 123.03125 148.058594 L 111.296875 148.058594 L 111.296875 142.191406 C 111.296875 132.484375 103.402344 124.582031 93.699219 124.582031 L 46.761719 124.582031 C 44.878906 124.582031 43.09375 124.960938 41.394531 125.511719 C 43.757812 111.691406 55.746094 101.109375 70.230469 101.109375 L 164.101562 101.109375 C 178.582031 101.109375 190.574219 111.683594 192.9375 125.511719 C 191.234375 124.960938 189.453125 124.582031 187.570312 124.582031 L 140.632812 124.582031 C 130.929688 124.582031 123.03125 132.476562 123.03125 142.191406 Z M 40.894531 177.40625 L 40.894531 142.191406 C 40.894531 138.953125 43.523438 136.320312 46.761719 136.320312 L 93.699219 136.320312 C 96.9375 136.320312 99.5625 138.953125 99.5625 142.191406 L 99.5625 177.40625 C 99.5625 180.644531 96.9375 183.273438 93.699219 183.273438 L 46.761719 183.273438 C 43.523438 183.273438 40.894531 180.640625 40.894531 177.40625 Z M 205.167969 159.796875 L 205.167969 136.320312 C 211.640625 136.320312 216.902344 141.585938 216.902344 148.058594 C 216.902344 154.535156 211.640625 159.796875 205.167969 159.796875 Z M 216.902344 107.644531 C 216.902344 113.71875 215.121094 119.605469 211.753906 124.667969 L 211.21875 125.46875 C 209.277344 124.949219 207.277344 124.582031 205.167969 124.582031 L 204.699219 124.582031 C 203.292969 114.804688 198.445312 106.148438 191.410156 99.855469 C 197.453125 95.808594 202.59375 90.691406 206.652344 84.808594 C 213.09375 90.585938 216.902344 98.917969 216.902344 107.644531 Z M 81.964844 27.621094 L 81.964844 46.660156 L 124.746094 22.203125 L 130.519531 51.097656 L 165.71875 33.488281 L 171.195312 60.875 L 205.070312 55.226562 C 204.023438 71.191406 194.589844 85.425781 180.359375 92.738281 C 175.367188 90.578125 169.875 89.363281 164.101562 89.363281 L 70.230469 89.363281 C 68.089844 89.363281 66 89.582031 63.945312 89.898438 L 47.464844 65.171875 C 53.71875 48.695312 66.152344 35.160156 81.964844 27.621094 Z M 20.878906 118.363281 C 18.617188 113.847656 17.425781 108.789062 17.425781 103.742188 C 17.425781 90.289062 25.496094 78.375 37.972656 73.382812 L 38.652344 73.105469 L 52.28125 93.554688 C 40.300781 99.410156 31.601562 110.902344 29.628906 124.578125 L 29.160156 124.578125 C 27.476562 124.578125 25.839844 124.773438 24.257812 125.113281 Z M 17.425781 148.058594 C 17.425781 141.585938 22.691406 136.320312 29.160156 136.320312 L 29.160156 159.796875 C 22.691406 159.796875 17.425781 154.527344 17.425781 148.058594 Z M 42.90625 194.554688 C 44.152344 194.835938 45.429688 195.007812 46.761719 195.007812 L 93.699219 195.007812 C 103.402344 195.007812 111.296875 187.109375 111.296875 177.398438 L 111.296875 159.792969 L 123.03125 159.792969 L 123.03125 177.398438 C 123.03125 187.109375 130.929688 195.007812 140.632812 195.007812 L 187.570312 195.007812 C 188.894531 195.007812 190.179688 194.832031 191.421875 194.554688 C 183.609375 228.386719 153.316406 253.703125 117.164062 253.703125 C 81.011719 253.703125 50.722656 228.386719 42.90625 194.554688 Z M 89.445312 297.707031 C 88.375 295.011719 87.832031 292.183594 87.832031 289.308594 L 87.832031 288.027344 C 87.832031 275.574219 97.960938 265.4375 110.414062 265.4375 C 119.332031 265.4375 127.425781 270.703125 131.050781 278.855469 L 144.628906 309.410156 L 108.246094 325.585938 C 100.25 317.914062 93.769531 308.503906 89.445312 297.707031 Z M 169.96875 347.609375 L 163.144531 347.609375 C 146.753906 347.609375 131.296875 342.664062 118.4375 333.90625 L 153.335938 318.394531 L 187.105469 321.769531 C 195.367188 322.597656 201.917969 328.3125 204.226562 335.871094 L 181.703125 335.871094 C 175.230469 335.871094 169.96875 341.136719 169.96875 347.609375 Z M 181.703125 359.347656 L 181.703125 347.609375 L 263.839844 347.609375 L 263.851562 359.347656 Z M 181.703125 359.347656 " fill-opacity="1" fill-rule="nonzero"/></g><path fill="#000000" d="M 195.15625 243.6875 L 173.40625 265.441406 L 195.15625 287.199219 L 203.449219 278.902344 L 189.996094 265.441406 L 203.449219 251.984375 Z M 195.15625 243.6875 " fill-opacity="1" fill-rule="nonzero"/><path fill="#000000" d="M 250.386719 287.199219 L 272.132812 265.441406 L 250.386719 243.6875 L 242.089844 251.984375 L 255.542969 265.441406 L 242.089844 278.902344 Z M 250.386719 287.199219 " fill-opacity="1" fill-rule="nonzero"/><path fill="#000000" d="M 205.59375 292.605469 L 229.0625 233.914062 L 239.957031 238.273438 L 216.488281 296.964844 Z M 205.59375 292.605469 " fill-opacity="1" fill-rule="nonzero"/><g clip-path="url(#be8edf3c98)"><path fill="#000000" d="M 357.710938 183.273438 C 364.179688 183.273438 369.445312 178.011719 369.445312 171.535156 L 369.445312 42.417969 C 369.445312 35.941406 364.179688 30.679688 357.710938 30.679688 L 252.105469 30.679688 C 245.632812 30.679688 240.371094 35.941406 240.371094 42.417969 L 240.371094 171.535156 C 240.371094 178.011719 245.632812 183.273438 252.105469 183.273438 L 305.148438 183.273438 L 270.398438 297.5 C 269.941406 299.007812 269.707031 300.585938 269.707031 302.171875 C 269.707031 311.046875 276.917969 318.257812 285.785156 318.257812 L 291.472656 318.257812 C 298.59375 318.257812 304.785156 313.679688 306.859375 306.855469 L 317.671875 271.304688 L 339.035156 271.304688 L 357.257812 335.09375 C 357.335938 335.351562 357.394531 335.609375 357.445312 335.867188 L 299.039062 335.867188 C 292.570312 335.867188 287.304688 341.132812 287.304688 347.605469 L 287.304688 359.34375 C 287.304688 365.816406 292.570312 371.082031 299.039062 371.082031 L 357.710938 371.082031 C 364.179688 371.082031 369.445312 365.816406 369.445312 359.34375 L 369.445312 338.332031 C 369.445312 336.167969 369.136719 334 368.546875 331.882812 L 334.988281 214.398438 L 344.457031 183.269531 L 357.710938 183.269531 Z M 357.710938 359.347656 L 299.039062 359.347656 L 299.039062 347.609375 L 357.710938 347.609375 Z M 345.300781 171.535156 C 343.386719 164.789062 337.246094 159.796875 329.886719 159.796875 L 324.210938 159.796875 C 323.628906 159.796875 323.070312 159.875 322.507812 159.933594 L 322.507812 77.632812 L 357.710938 77.632812 L 357.710938 171.535156 Z M 357.710938 42.417969 L 357.710938 65.894531 L 299.039062 65.894531 L 299.039062 54.15625 L 287.304688 54.15625 L 287.304688 65.894531 L 275.574219 65.894531 L 275.574219 54.15625 L 263.839844 54.15625 L 263.839844 65.894531 L 252.105469 65.894531 L 252.105469 42.417969 Z M 252.105469 171.535156 L 252.105469 77.632812 L 310.773438 77.632812 L 310.773438 167.09375 C 309.957031 168.351562 309.277344 169.710938 308.820312 171.207031 L 308.71875 171.542969 L 252.105469 171.542969 Z M 295.636719 303.433594 C 295.066406 305.28125 293.394531 306.519531 291.472656 306.519531 L 285.785156 306.519531 C 283.386719 306.519531 281.4375 304.574219 281.4375 302.171875 C 281.4375 301.742188 281.503906 301.316406 281.628906 300.90625 L 320.042969 174.617188 C 320.613281 172.769531 322.285156 171.53125 324.210938 171.53125 L 329.894531 171.53125 C 332.292969 171.53125 334.242188 173.480469 334.242188 175.878906 C 334.242188 176.308594 334.175781 176.738281 334.054688 177.148438 Z M 335.683594 259.574219 L 321.246094 259.574219 L 328.691406 235.101562 Z M 335.683594 259.574219 " fill-opacity="1" fill-rule="nonzero"/></g><path fill="#000000" d="M 334.242188 89.371094 L 345.976562 89.371094 L 345.976562 101.109375 L 334.242188 101.109375 Z M 334.242188 89.371094 " fill-opacity="1" fill-rule="nonzero"/><path fill="#000000" d="M 334.242188 112.847656 L 345.976562 112.847656 L 345.976562 124.582031 L 334.242188 124.582031 Z M 334.242188 112.847656 " fill-opacity="1" fill-rule="nonzero"/><path fill="#000000" d="M 263.839844 89.371094 L 299.039062 89.371094 L 299.039062 101.109375 L 263.839844 101.109375 Z M 263.839844 89.371094 " fill-opacity="1" fill-rule="nonzero"/><path fill="#000000" d="M 263.839844 112.847656 L 299.039062 112.847656 L 299.039062 124.582031 L 263.839844 124.582031 Z M 263.839844 112.847656 " fill-opacity="1" fill-rule="nonzero"/><path fill="#000000" d="M 263.839844 136.320312 L 299.039062 136.320312 L 299.039062 148.058594 L 263.839844 148.058594 Z M 263.839844 136.320312 " fill-opacity="1" fill-rule="nonzero"/><path fill="#000000" d="M 334.242188 136.320312 L 345.976562 136.320312 L 345.976562 148.058594 L 334.242188 148.058594 Z M 334.242188 136.320312 " fill-opacity="1" fill-rule="nonzero"/></svg>